<?xml version="1.0" encoding="UTF-8"?><!DOCTYPE svg PUBLIC "-//W3C//DTD SVG 1.1//EN" "http://www.w3.org/Graphics/SVG/1.1/DTD/svg11.dtd"><svg xmlns="http://www.w3.org/2000/svg" xmlns:xlink="http://www.w3.org/1999/xlink"><symbol id="icon-card" viewBox="0 0 512 512">
    <path d="M498.409 175.706L336.283 13.582C327.531 4.831 315.86.011 303.418.011c-12.441 0-24.113 4.818-32.865 13.569L13.571 270.563C4.82 279.315 0 290.985 0 303.427c0 12.442 4.82 24.114 13.571 32.864l19.992 19.992.005.005.006.006 134.36 134.36H149.33c-5.89 0-10.666 4.775-10.666 10.666 0 5.89 4.776 10.666 10.666 10.666h59.189l.041.001.041-.001 154.053.002c5.89 0 10.666-4.776 10.666-10.666 0-5.891-4.776-10.666-10.666-10.666l-113.464-.002 249.22-249.22c18.12-18.122 18.12-47.608-.001-65.728zm-15.084 50.644L226.341 483.334c-4.713 4.712-11.013 7.31-17.742 7.32h-.081c-6.727-.011-13.025-2.608-17.736-7.32L56.195 348.746 302.99 101.949c4.165-4.165 4.165-10.919 0-15.084-4.166-4.165-10.918-4.165-15.085.001L41.11 333.663l-12.456-12.456c-4.721-4.721-7.321-11.035-7.321-17.779s2.6-13.059 7.322-17.781L285.637 28.665c4.722-4.721 11.037-7.321 17.781-7.321 6.744 0 13.059 2.6 17.781 7.322l57.703 57.702-246.798 246.8c-4.165 4.164-4.165 10.918 0 15.085a10.636 10.636 0 0 0 7.542 3.123c2.729 0 5.459-1.042 7.542-3.124l246.798-246.799 89.339 89.336c9.803 9.804 9.802 25.757 0 35.561z"/>
    <path d="M262.801 308.064c-4.165-4.165-10.917-4.164-15.085 0l-83.934 83.933c-4.165 4.165-4.165 10.918 0 15.085a10.633 10.633 0 0 0 7.542 3.124c2.729 0 5.459-1.042 7.542-3.124l83.934-83.933c4.166-4.167 4.166-10.92.001-15.085z"/>
    <path d="M228.375 387.741l-34.425 34.425c-4.165 4.165-4.165 10.919 0 15.085a10.637 10.637 0 0 0 7.542 3.124c2.731 0 5.459-1.042 7.542-3.124l34.425-34.425c4.165-4.165 4.165-10.919 0-15.085s-10.916-4.166-15.084 0z"/>
    <path d="M260.054 356.065l-4.525 4.524c-4.166 4.165-4.166 10.918-.001 15.085a10.632 10.632 0 0 0 7.542 3.125 10.63 10.63 0 0 0 7.541-3.125l4.525-4.524c4.166-4.165 4.166-10.918.001-15.084-4.163-4.165-10.918-4.166-15.083-.001z"/>
    <path d="M407.073 163.793a10.666 10.666 0 0 0-15.084 0l-45.255 45.254a10.668 10.668 0 0 0 0 15.084l30.17 30.167a10.633 10.633 0 0 0 7.542 3.124c2.731 0 5.459-1.042 7.542-3.124l45.253-45.252c4.165-4.165 4.165-10.919 0-15.084l-30.168-30.169zm-22.628 67.88l-15.085-15.084 30.17-30.169 15.084 15.085-30.169 30.168z"/>
    <path d="M320.339 80.186c2.731 0 5.461-1.042 7.543-3.126l4.525-4.527c4.164-4.166 4.163-10.92-.003-15.084-4.165-4.164-10.92-4.163-15.084.003l-4.525 4.527c-4.164 4.166-4.163 10.92.003 15.084a10.628 10.628 0 0 0 7.541 3.123z"/>
    <path d="M107.215 358.057l-4.525 4.525c-4.165 4.164-4.165 10.918 0 15.085 2.083 2.082 4.813 3.123 7.542 3.123s5.459-1.041 7.542-3.123l4.525-4.525c4.165-4.166 4.165-10.92 0-15.085-4.166-4.166-10.918-4.166-15.084 0z"/>
</symbol><symbol id="icon-search" viewBox="0 0 512 512">
    <path d="M410.738 205.137C388.378 164.959 346.712 140 302.001 140s-86.377 24.959-108.738 65.137a10 10 0 0 0 0 9.727C215.624 255.041 257.29 280 302.001 280c44.71 0 86.376-24.959 108.737-65.136a10 10 0 0 0 0-9.727zm-108.737 54.862c-35.629 0-69.008-19.02-88.39-49.999 19.382-30.979 52.761-50 88.39-50s69.007 19.021 88.39 50c-19.382 30.979-52.761 49.999-88.39 49.999z"/>
    <path d="M302.001 180c-16.542 0-30 13.457-30 29.999s13.458 30 30 30 30-13.458 30-30-13.458-29.999-30-29.999zm0 39.999c-5.514 0-10-4.486-10-10s4.486-9.999 10-9.999 10 4.486 10 9.999c0 5.515-4.485 10-10 10z"/>
    <path d="M302.001 0c-115.794 0-210 94.206-210 209.999 0 43.471 13.278 83.898 35.99 117.441L11.679 443.753C4.148 451.285 0 461.33 0 472.038s4.148 20.753 11.68 28.284c7.531 7.532 17.576 11.68 28.284 11.68s20.753-4.148 28.285-11.679L184.561 384.01c33.543 22.711 73.97 35.989 117.441 35.989 115.794 0 210-94.206 210-210C512.001 94.206 417.796 0 302.001 0zM54.105 486.18c-3.754 3.754-8.776 5.822-14.142 5.822-5.365 0-10.388-2.068-14.142-5.822-3.754-3.755-5.821-8.777-5.821-14.142 0-5.366 2.068-10.388 5.822-14.142l85.85-85.85a250.146 250.146 0 0 0 28.284 28.284l-85.851 85.85zm100.034-100.034a230.244 230.244 0 0 1-28.284-28.284l14.19-14.19a210.686 210.686 0 0 0 28.284 28.284l-14.19 14.19zm147.862 13.853c-104.766 0-190-85.234-190-190S197.235 20 302.001 20s190 85.233 190 189.999-85.233 190-190 190z"/>
    <path d="M228.161 62.105c-2.763-4.784-8.88-6.422-13.66-3.66a174.516 174.516 0 0 0-46.003 38.409c-3.571 4.213-3.05 10.523 1.163 14.094a9.958 9.958 0 0 0 6.461 2.371 9.979 9.979 0 0 0 7.634-3.535 154.593 154.593 0 0 1 40.745-34.019c4.783-2.762 6.422-8.877 3.66-13.66z"/>
    <path d="M164.225 118.643c-4.782-2.762-10.898-1.126-13.662 3.656l-.115.198c-2.763 4.782-1.126 10.898 3.656 13.662a9.995 9.995 0 0 0 13.662-3.656l.115-.198c2.763-4.783 1.125-10.899-3.656-13.662z"/>
</symbol><symbol id="icon-telegramas" viewBox="0 0 10 19">
    <path d="M9.766.157v2.946H8.014c-.64 0-1.071.134-1.295.402-.223.268-.335.67-.335 1.205v2.11h3.27l-.435 3.303H6.384v8.471H2.97v-8.47H.123V6.82H2.97V4.387c0-1.384.387-2.457 1.161-3.22C4.904.404 5.934.023 7.222.023c1.093 0 1.941.045 2.544.134z" fill-rule="evenodd"/>
</symbol></svg>